<?xml version="1.0" encoding="utf-8"?>
<!-- Generator: Adobe Illustrator 17.0.1, SVG Export Plug-In . SVG Version: 6.00 Build 0)  -->
<!DOCTYPE svg PUBLIC "-//W3C//DTD SVG 1.1//EN" "http://www.w3.org/Graphics/SVG/1.1/DTD/svg11.dtd">
<svg version="1.1" id="Слой_1" xmlns="http://www.w3.org/2000/svg" xmlns:xlink="http://www.w3.org/1999/xlink" x="0px" y="0px"
	 width="27px" height="27px" viewBox="0 0 27 27" enable-background="new 0 0 27 27" xml:space="preserve">
<g>
	<g>
		<path d="M9.89,14.9c0-0.34-0.27-0.61-0.6-0.61H7.18c-0.33,0-0.6,0.27-0.6,0.61v2.14c0,0.34,0.27,0.61,0.6,0.61h2.11
			c0.33,0,0.6-0.27,0.6-0.61L9.89,14.9L9.89,14.9z"/>
		<path d="M15.16,14.9c0-0.34-0.27-0.61-0.6-0.61h-2.11c-0.33,0-0.6,0.27-0.6,0.61v2.14c0,0.34,0.27,0.61,0.6,0.61h2.11
			c0.33,0,0.6-0.27,0.6-0.61V14.9z"/>
		<path d="M20.42,14.9c0-0.34-0.27-0.61-0.6-0.61h-2.11c-0.33,0-0.6,0.27-0.6,0.61v2.14c0,0.34,0.27,0.61,0.6,0.61h2.11
			c0.33,0,0.6-0.27,0.6-0.61V14.9z"/>
		<path d="M9.89,20.24c0-0.34-0.27-0.61-0.6-0.61H7.18c-0.33,0-0.6,0.27-0.6,0.61v2.14c0,0.34,0.27,0.61,0.6,0.61h2.11
			c0.33,0,0.6-0.27,0.6-0.61L9.89,20.24L9.89,20.24z"/>
		<path d="M15.16,20.24c0-0.34-0.27-0.61-0.6-0.61h-2.11c-0.33,0-0.6,0.27-0.6,0.61v2.14c0,0.34,0.27,0.61,0.6,0.61h2.11
			c0.33,0,0.6-0.27,0.6-0.61V20.24z"/>
		<path d="M20.42,20.24c0-0.34-0.27-0.61-0.6-0.61h-2.11c-0.33,0-0.6,0.27-0.6,0.61v2.14c0,0.34,0.27,0.61,0.6,0.61h2.11
			c0.33,0,0.6-0.27,0.6-0.61L20.42,20.24L20.42,20.24z"/>
		<path d="M24.19,3.01v3.27c0,1.48-1.18,2.67-2.63,2.67h-1.66c-1.45,0-2.65-1.19-2.65-2.67V2.99H9.76v3.28
			c0,1.48-1.19,2.67-2.65,2.67H5.45c-1.45,0-2.63-1.19-2.63-2.67V3.01C1.54,3.05,0.5,4.11,0.5,5.42v19.14C0.5,25.9,1.57,27,2.88,27
			h21.23c1.31,0,2.38-1.1,2.38-2.43V5.42C26.5,4.11,25.46,3.05,24.19,3.01z M23.41,23.37c0,0.58-0.46,1.05-1.03,1.05H4.57
			c-0.57,0-1.03-0.47-1.03-1.05v-9.89c0-0.58,0.46-1.05,1.03-1.05h17.81c0.57,0,1.03,0.47,1.03,1.05L23.41,23.37L23.41,23.37z"/>
		<path d="M5.44,7.19h1.64c0.5,0,0.9-0.41,0.9-0.92V0.92C7.99,0.41,7.58,0,7.08,0H5.44c-0.5,0-0.9,0.41-0.9,0.92v5.35
			C4.54,6.78,4.94,7.19,5.44,7.19z"/>
		<path d="M19.87,7.19h1.64c0.5,0,0.9-0.41,0.9-0.92V0.92c0-0.51-0.4-0.92-0.9-0.92h-1.64c-0.5,0-0.9,0.41-0.9,0.92v5.35
			C18.97,6.78,19.37,7.19,19.87,7.19z"/>
	</g>
</g>
</svg>
