<?xml version="1.0" encoding="utf-8"?>
<!-- Generator: Adobe Illustrator 17.0.1, SVG Export Plug-In . SVG Version: 6.00 Build 0)  -->
<!DOCTYPE svg PUBLIC "-//W3C//DTD SVG 1.1//EN" "http://www.w3.org/Graphics/SVG/1.1/DTD/svg11.dtd">
<svg version="1.1" id="Слой_1" xmlns="http://www.w3.org/2000/svg" xmlns:xlink="http://www.w3.org/1999/xlink" x="0px" y="0px"
	 width="27px" height="27px" viewBox="0 0 27 27" enable-background="new 0 0 27 27" xml:space="preserve">
<g>
	<path d="M27,19.67c0,0.52-0.17,0.99-0.43,1.41l-8.53-8.31l8.43-6.43C26.8,6.8,27,7.33,27,7.91L27,19.67L27,19.67z M13.5,14.28
		l11.73-8.94c-0.48-0.23-1.02-0.37-1.61-0.37H3.37c-0.59,0-1.13,0.14-1.61,0.37L13.5,14.28z M16.77,13.74l-2.72,2.07
		c-0.16,0.12-0.36,0.18-0.56,0.18c-0.2,0-0.4-0.06-0.56-0.18l-2.72-2.07L1.6,22.15c0.52,0.28,1.12,0.45,1.78,0.45h20.25
		c0.66,0,1.26-0.17,1.78-0.45L16.77,13.74z M0.53,6.34C0.2,6.8,0,7.33,0,7.91v11.76c0,0.52,0.17,0.99,0.43,1.41l8.52-8.31L0.53,6.34
		z"/>
</g>
</svg>
