<?xml version="1.0" encoding="utf-8"?>
<!-- Generator: Adobe Illustrator 17.0.1, SVG Export Plug-In . SVG Version: 6.00 Build 0)  -->
<!DOCTYPE svg PUBLIC "-//W3C//DTD SVG 1.1//EN" "http://www.w3.org/Graphics/SVG/1.1/DTD/svg11.dtd">
<svg version="1.1" id="Слой_1" xmlns="http://www.w3.org/2000/svg" xmlns:xlink="http://www.w3.org/1999/xlink" x="0px" y="0px"
	 width="27px" height="27px" viewBox="0 0 27 27" enable-background="new 0 0 27 27" xml:space="preserve">
<g>
	<g>
		<path d="M13.55,3.96c-1.31,0-2.37,1.06-2.37,2.37s1.06,2.37,2.37,2.37s2.37-1.06,2.37-2.37S14.86,3.96,13.55,3.96z"/>
		<path d="M13.55,0c-3.49,0-6.33,2.84-6.33,6.33c0,1.2,0.34,2.36,0.97,3.37l5.36,8.55l5.36-8.55c0.64-1.01,0.97-2.17,0.97-3.37
			C19.88,2.84,17.04,0,13.55,0z M13.55,10.28c-2.18,0-3.96-1.77-3.96-3.96s1.77-3.96,3.96-3.96s3.96,1.77,3.96,3.96
			S15.73,10.28,13.55,10.28z"/>
	</g>
	<path d="M9.7,27h7.7l-0.61-4.8h-6.5L9.7,27z"/>
	<path d="M10.44,20.62h2.68l-2.24-3.55L10.44,20.62z"/>
	<path d="M18.13,20.62h6.23l-1.98-4.75h-4.86L18.13,20.62z"/>
	<path d="M2.64,20.62h6.21l0.59-4.75H4.61L2.64,20.62z"/>
	<path d="M13.87,20.62h2.66l-0.45-3.51L13.87,20.62z"/>
	<path d="M8.65,22.2H1.98L0,27h8.06L8.65,22.2z"/>
	<path d="M25.02,22.2h-6.69l0.61,4.8H27L25.02,22.2z"/>
</g>
</svg>
