<?xml version="1.0" encoding="utf-8"?>
<!-- Generator: Adobe Illustrator 17.0.1, SVG Export Plug-In . SVG Version: 6.00 Build 0)  -->
<!DOCTYPE svg PUBLIC "-//W3C//DTD SVG 1.1//EN" "http://www.w3.org/Graphics/SVG/1.1/DTD/svg11.dtd">
<svg version="1.1" id="Слой_1" xmlns="http://www.w3.org/2000/svg" xmlns:xlink="http://www.w3.org/1999/xlink" x="0px" y="0px"
	 width="27px" height="27px" viewBox="0 0 27 27" enable-background="new 0 0 27 27" xml:space="preserve">
<g>
	<g>
		<path fill="#010002" d="M13.65,6.52c4.55,0.04,7.4-0.24,7.78,4.75h5.55c0-7.73-6.81-8.77-13.48-8.77
			c-6.66,0-13.48,1.04-13.48,8.77h5.5C5.96,6.19,9.14,6.48,13.65,6.52z"/>
		<path fill="#010002" d="M2.78,13.76c1.35,0,2.48,0.08,2.73-1.24c0.03-0.18,0.05-0.38,0.05-0.62H5.49H0
			C0,13.86,1.24,13.76,2.78,13.76z"/>
		<path fill="#010002" d="M21.47,11.91h-0.05c0,0.24,0.02,0.44,0.06,0.62c0.26,1.21,1.39,1.14,2.73,1.14c1.54,0,2.79,0.1,2.79-1.75
			L21.47,11.91L21.47,11.91z"/>
		<path fill="#010002" d="M18.76,10.57V9.8c0-0.35-0.4-0.37-0.9-0.37h-0.82c-0.5,0-0.9,0.02-0.9,0.37v0.67v0.52h-5.78v-0.52V9.8
			c0-0.35-0.4-0.37-0.9-0.37H8.63c-0.5,0-0.9,0.02-0.9,0.37v0.78v0.68c-1.32,1.35-5.62,7.11-5.78,7.81l0,4.65
			c0,0.43,0.35,0.78,0.79,0.78h21.01c0.43,0,0.79-0.35,0.79-0.78v-4.68c-0.15-0.68-4.46-6.44-5.78-7.79L18.76,10.57L18.76,10.57z
			 M10.07,19.69c-0.42,0-0.77-0.34-0.77-0.76c0-0.42,0.34-0.76,0.77-0.76s0.77,0.34,0.77,0.76S10.49,19.69,10.07,19.69z
			 M10.07,17.09c-0.42,0-0.77-0.34-0.77-0.76s0.34-0.76,0.77-0.76s0.77,0.34,0.77,0.76C10.84,16.75,10.49,17.09,10.07,17.09z
			 M10.07,14.5c-0.42,0-0.77-0.34-0.77-0.76c0-0.42,0.34-0.76,0.77-0.76s0.77,0.34,0.77,0.76C10.84,14.16,10.49,14.5,10.07,14.5z
			 M13.22,19.69c-0.42,0-0.77-0.34-0.77-0.76c0-0.42,0.34-0.76,0.77-0.76c0.42,0,0.77,0.34,0.77,0.76
			C13.99,19.35,13.65,19.69,13.22,19.69z M13.22,17.09c-0.42,0-0.77-0.34-0.77-0.76s0.34-0.76,0.77-0.76c0.42,0,0.77,0.34,0.77,0.76
			C13.99,16.75,13.65,17.09,13.22,17.09z M13.22,14.5c-0.42,0-0.77-0.34-0.77-0.76c0-0.42,0.34-0.76,0.77-0.76
			c0.42,0,0.77,0.34,0.77,0.76C13.99,14.16,13.65,14.5,13.22,14.5z M16.37,19.69c-0.42,0-0.77-0.34-0.77-0.76
			c0-0.42,0.34-0.76,0.77-0.76c0.42,0,0.77,0.34,0.77,0.76S16.8,19.69,16.37,19.69z M16.37,17.09c-0.42,0-0.77-0.34-0.77-0.76
			s0.34-0.76,0.77-0.76c0.42,0,0.77,0.34,0.77,0.76C17.14,16.75,16.8,17.09,16.37,17.09z M16.37,14.5c-0.42,0-0.77-0.34-0.77-0.76
			c0-0.42,0.34-0.76,0.77-0.76c0.42,0,0.77,0.34,0.77,0.76C17.14,14.16,16.8,14.5,16.37,14.5z"/>
	</g>
</g>
</svg>
