<?xml version="1.0" encoding="utf-8"?>
<!-- Generator: Adobe Illustrator 17.0.1, SVG Export Plug-In . SVG Version: 6.00 Build 0)  -->
<!DOCTYPE svg PUBLIC "-//W3C//DTD SVG 1.1//EN" "http://www.w3.org/Graphics/SVG/1.1/DTD/svg11.dtd">
<svg version="1.1" id="Слой_1" xmlns="http://www.w3.org/2000/svg" xmlns:xlink="http://www.w3.org/1999/xlink" x="0px" y="0px"
	 width="24px" height="24px" viewBox="0 0 24 24" enable-background="new 0 0 24 24" xml:space="preserve">
<g>
	<g>
		<g>
			<path d="M7.83,10.063c0.557,0,1.009-0.448,1.009-1v-3.9C8.839,3.419,10.27,2,12.029,2c1.759,0,3.19,1.419,3.19,3.162v3.9
				c0,0.552,0.452,1,1.009,1c0.557,0,1.009-0.448,1.009-1v-3.9C17.237,2.316,14.901,0,12.029,0C9.158,0,6.822,2.316,6.822,5.162v3.9
				C6.821,9.615,7.273,10.063,7.83,10.063z"/>
			<path d="M23.601,7.815h-5.355v1.247c0,1.103-0.905,2-2.018,2c-1.112,0-2.018-0.897-2.018-2V7.816H9.848v1.247
				c0,1.103-0.905,2-2.018,2s-2.018-0.897-2.018-2V7.816H0.398c-0.278,0-0.45,0.217-0.384,0.486L3.543,22.55
				C3.757,23.351,4.607,24,5.443,24h13.115c0.836,0,1.686-0.649,1.9-1.45l3.529-14.249C24.052,8.033,23.88,7.815,23.601,7.815z"/>
		</g>
	</g>
</g>
</svg>
