<?xml version="1.0" encoding="utf-8"?>
<!-- Generator: Adobe Illustrator 17.0.1, SVG Export Plug-In . SVG Version: 6.00 Build 0)  -->
<!DOCTYPE svg PUBLIC "-//W3C//DTD SVG 1.1//EN" "http://www.w3.org/Graphics/SVG/1.1/DTD/svg11.dtd">
<svg version="1.1" id="Слой_1" xmlns="http://www.w3.org/2000/svg" xmlns:xlink="http://www.w3.org/1999/xlink" x="0px" y="0px"
	 width="30px" height="24px" viewBox="0 0 30 24" enable-background="new 0 0 30 24" xml:space="preserve">
<g>
	<g>
		<path fill="#010002" d="M15.165,4.381c5.055,0.048,8.222-0.258,8.649,5.189h6.164c0-8.438-7.57-9.575-14.974-9.575
			C7.6-0.005,0.03,1.132,0.03,9.57h6.116C6.62,4.02,10.152,4.333,15.165,4.381z"/>
		<path fill="#010002" d="M3.087,12.282c1.501,0,2.751,0.087,3.028-1.348c0.037-0.195,0.059-0.416,0.059-0.672H6.104H0
			C0,12.398,1.382,12.282,3.087,12.282z"/>
		<path fill="#010002" d="M23.854,10.262h-0.058c0,0.258,0.023,0.479,0.065,0.672c0.293,1.324,1.54,1.242,3.037,1.242
			c1.713,0,3.102,0.109,3.102-1.914L23.854,10.262L23.854,10.262z"/>
		<path fill="#010002" d="M20.842,8.808V7.959c0-0.379-0.45-0.403-1.005-0.403H18.93c-0.555,0-1.005,0.024-1.005,0.403V8.69v0.567
			h-6.419V8.69V7.959c0-0.379-0.45-0.403-1.005-0.403H9.594c-0.555,0-1.005,0.024-1.005,0.403v0.849v0.741
			c-1.462,1.477-6.247,7.765-6.421,8.526l0.002,5.08c0,0.469,0.393,0.851,0.875,0.851h23.34c0.483,0,0.875-0.382,0.875-0.851v-5.105
			c-0.172-0.739-4.956-7.024-6.419-8.501L20.842,8.808L20.842,8.808z M11.19,18.758c-0.47,0-0.851-0.37-0.851-0.827
			s0.381-0.827,0.851-0.827c0.47,0,0.851,0.37,0.851,0.827C12.041,18.388,11.66,18.758,11.19,18.758z M11.19,15.922
			c-0.47,0-0.851-0.37-0.851-0.827c0-0.457,0.381-0.827,0.851-0.827c0.47,0,0.851,0.37,0.851,0.827
			C12.041,15.552,11.66,15.922,11.19,15.922z M11.19,13.086c-0.47,0-0.851-0.37-0.851-0.827c0-0.457,0.381-0.827,0.851-0.827
			c0.47,0,0.851,0.37,0.851,0.827C12.041,12.716,11.66,13.086,11.19,13.086z M14.691,18.758c-0.47,0-0.851-0.37-0.851-0.827
			s0.381-0.827,0.851-0.827c0.47,0,0.851,0.37,0.851,0.827C15.542,18.388,15.161,18.758,14.691,18.758z M14.691,15.922
			c-0.47,0-0.851-0.37-0.851-0.827c0-0.457,0.381-0.827,0.851-0.827c0.47,0,0.851,0.37,0.851,0.827
			C15.542,15.552,15.161,15.922,14.691,15.922z M14.691,13.086c-0.47,0-0.851-0.37-0.851-0.827c0-0.457,0.381-0.827,0.851-0.827
			c0.47,0,0.851,0.37,0.851,0.827C15.542,12.716,15.161,13.086,14.691,13.086z M18.192,18.758c-0.47,0-0.851-0.37-0.851-0.827
			s0.38-0.827,0.851-0.827c0.47,0,0.851,0.37,0.851,0.827C19.043,18.388,18.662,18.758,18.192,18.758z M18.192,15.922
			c-0.47,0-0.851-0.37-0.851-0.827c0-0.457,0.38-0.827,0.851-0.827c0.47,0,0.851,0.37,0.851,0.827
			C19.043,15.552,18.662,15.922,18.192,15.922z M18.192,13.086c-0.47,0-0.851-0.37-0.851-0.827c0-0.457,0.38-0.827,0.851-0.827
			c0.47,0,0.851,0.37,0.851,0.827C19.043,12.716,18.662,13.086,18.192,13.086z"/>
	</g>
</g>
</svg>
