<?xml version="1.0" encoding="utf-8"?>
<!-- Generator: Adobe Illustrator 17.0.1, SVG Export Plug-In . SVG Version: 6.00 Build 0)  -->
<!DOCTYPE svg PUBLIC "-//W3C//DTD SVG 1.1//EN" "http://www.w3.org/Graphics/SVG/1.1/DTD/svg11.dtd">
<svg version="1.1" id="Слой_1" xmlns="http://www.w3.org/2000/svg" xmlns:xlink="http://www.w3.org/1999/xlink" x="0px" y="0px"
	 width="19px" height="19px" viewBox="0 0 19 19" enable-background="new 0 0 19 19" xml:space="preserve">
<g>
	<g>
		<path fill="#010002" d="M0,7.691c0,4.248,3.443,7.691,7.691,7.691c1.829,0,3.507-0.641,4.828-1.705l5.083,5.082
			c0.319,0.321,0.839,0.321,1.158,0c0.319-0.319,0.319-0.838,0-1.158l-5.083-5.082c1.065-1.323,1.706-3,1.706-4.828
			C15.383,3.443,11.94,0,7.692,0C3.446,0,0,3.443,0,7.691z M1.184,7.691c0-3.589,2.92-6.508,6.508-6.508S14.2,4.102,14.2,7.691
			s-2.918,6.508-6.508,6.508C4.104,14.199,1.184,11.28,1.184,7.691z"/>
	</g>
</g>
</svg>
